<svg width="18" height="21" viewBox="0 0 18 21" fill="none" xmlns="http://www.w3.org/2000/svg">
<g clip-path="url(#clip0_11730_222)">
<path d="M4.34058 13.9485C4.34058 13.5699 4.20197 13.2467 3.92474 12.9788C3.64752 12.711 3.313 12.5771 2.92119 12.5771C2.52937 12.5771 2.19486 12.711 1.91763 12.9788C1.6404 13.2467 1.50179 13.5699 1.50179 13.9485C1.50179 14.3271 1.6404 14.6503 1.91763 14.9181C2.19486 15.186 2.52937 15.3199 2.92119 15.3199C3.313 15.3199 3.64752 15.186 3.92474 14.9181C4.20197 14.6503 4.34058 14.3271 4.34058 13.9485ZM15.6957 13.9485C15.6957 13.5699 15.5571 13.2467 15.2799 12.9788C15.0027 12.711 14.6682 12.5771 14.2763 12.5771C13.8845 12.5771 13.55 12.711 13.2728 12.9788C12.9956 13.2467 12.8569 13.5699 12.8569 13.9485C12.8569 14.3271 12.9956 14.6503 13.2728 14.9181C13.55 15.186 13.8845 15.3199 14.2763 15.3199C14.6682 15.3199 15.0027 15.186 15.2799 14.9181C15.5571 14.6503 15.6957 14.3271 15.6957 13.9485ZM15.1856 9.70563L14.3872 5.59135C14.3503 5.42706 14.2671 5.29313 14.1377 5.18956C14.0084 5.08599 13.8587 5.0342 13.6886 5.0342H3.5089C3.33887 5.0342 3.18917 5.08599 3.0598 5.18956C2.93043 5.29313 2.84726 5.42706 2.8103 5.59135L2.01189 9.70563C1.97492 9.91992 2.02667 10.1092 2.16713 10.2735C2.30759 10.4378 2.48871 10.5199 2.71049 10.5199H14.487C14.7088 10.5199 14.8899 10.4378 15.0304 10.2735C15.1709 10.1092 15.2226 9.91992 15.1856 9.70563ZM12.6795 3.14849C12.6795 3.00563 12.6278 2.88421 12.5243 2.78421C12.4208 2.68421 12.2951 2.63421 12.1472 2.63421H5.05028C4.90242 2.63421 4.77675 2.68421 4.67325 2.78421C4.56975 2.88421 4.518 3.00563 4.518 3.14849C4.518 3.29135 4.56975 3.41278 4.67325 3.51278C4.77675 3.61278 4.90242 3.66278 5.05028 3.66278H12.1472C12.2951 3.66278 12.4208 3.61278 12.5243 3.51278C12.6278 3.41278 12.6795 3.29135 12.6795 3.14849ZM17.1151 10.9163V17.3771H15.6957V18.7485C15.6957 19.1271 15.5571 19.4503 15.2799 19.7181C15.0027 19.986 14.6682 20.1199 14.2763 20.1199C13.8845 20.1199 13.55 19.986 13.2728 19.7181C12.9956 19.4503 12.8569 19.1271 12.8569 18.7485V17.3771H4.34058V18.7485C4.34058 19.1271 4.20197 19.4503 3.92474 19.7181C3.64752 19.986 3.313 20.1199 2.92119 20.1199C2.52937 20.1199 2.19486 19.986 1.91763 19.7181C1.6404 19.4503 1.50179 19.1271 1.50179 18.7485V17.3771H0.0823975V10.9163C0.0823975 10.1163 0.174806 9.31992 0.359623 8.52706L1.50179 3.66278C1.56833 3.10563 1.92872 2.61635 2.58297 2.19492C3.23722 1.77349 4.08738 1.45564 5.13344 1.24135C6.17951 1.02706 7.33461 0.919922 8.59876 0.919922C9.86291 0.919922 11.018 1.02706 12.0641 1.24135C13.1101 1.45564 13.9603 1.77349 14.6146 2.19492C15.2688 2.61635 15.6292 3.10563 15.6957 3.66278L16.8601 8.52706C17.0301 9.25563 17.1151 10.0521 17.1151 10.9163Z" fill="#1D2E5B"/>
</g>
<defs>
<clipPath id="clip0_11730_222">
<rect width="17.0398" height="19.2" fill="white" transform="translate(0.0795898 0.919922)"/>
</clipPath>
</defs>
</svg>
