<?xml version="1.0" encoding="utf-8"?><svg viewBox="0 0 25 25" xmlns="http://www.w3.org/2000/svg" xmlns:xlink="http://www.w3.org/1999/xlink"><style>:root>svg{display:none}:root>svg:target{display:block}</style><svg fill="none" viewBox="0 0 25 24" id="icon_bicycle" xmlns="http://www.w3.org/2000/svg"><path opacity=".15" d="M18.308 21a4.21 4.21 0 0 1-2.363-.727 4.3 4.3 0 0 1-1.566-1.935 4.37 4.37 0 0 1-.242-2.492 4.331 4.331 0 0 1 1.163-2.208 4.234 4.234 0 0 1 2.178-1.18 4.198 4.198 0 0 1 2.457.245c.777.327 1.441.88 1.908 1.589a4.357 4.357 0 0 1-.53 5.443A4.227 4.227 0 0 1 18.308 21Zm0-7.125c-.549 0-1.085.165-1.541.474a2.804 2.804 0 0 0-1.022 1.262 2.85 2.85 0 0 0-.158 1.625c.107.546.372 1.047.76 1.44a2.737 2.737 0 0 0 3.022.61c.507-.213.94-.573 1.244-1.036a2.84 2.84 0 0 0-.345-3.55 2.757 2.757 0 0 0-1.96-.825ZM6.104 21a4.21 4.21 0 0 1-2.362-.727 4.3 4.3 0 0 1-1.566-1.935 4.369 4.369 0 0 1-.242-2.492 4.331 4.331 0 0 1 1.163-2.208 4.235 4.235 0 0 1 2.178-1.18 4.198 4.198 0 0 1 2.457.245c.777.327 1.441.88 1.908 1.589a4.356 4.356 0 0 1-.53 5.443A4.227 4.227 0 0 1 6.104 21Zm0-7.125c-.548 0-1.084.165-1.54.474a2.804 2.804 0 0 0-1.022 1.262 2.85 2.85 0 0 0-.158 1.625c.107.546.372 1.047.76 1.44a2.738 2.738 0 0 0 3.022.61c.507-.213.94-.573 1.245-1.036a2.84 2.84 0 0 0-.346-3.55 2.758 2.758 0 0 0-1.96-.825ZM15.164 6a1.456 1.456 0 0 0 1.05-.44 1.495 1.495 0 0 0 .43-1.065 1.495 1.495 0 0 0-.426-1.06 1.458 1.458 0 0 0-1.61-.323 1.478 1.478 0 0 0-.804.81 1.518 1.518 0 0 0 .316 1.635A1.477 1.477 0 0 0 15.164 6Z" fill="#1D2E5B"/><path opacity=".15" d="M17.362 9H15.34a.183.183 0 0 1-.163-.097L13.71 6.176a1.447 1.447 0 0 0-.435-.511 1.422 1.422 0 0 0-1.279-.204 1.43 1.43 0 0 0-.568.352l-3.23 3.3c-.27.28-.425.656-.43 1.05 0 .815.583 1.106.856 1.27 1.317.77 2.245 1.332 2.754 1.645a.187.187 0 0 1 .088.16v3.24c0 .404.306.75.704.77a.732.732 0 0 0 .546-.206.75.75 0 0 0 .23-.542v-4.031a.757.757 0 0 0-.308-.61l-1.71-1.247a.187.187 0 0 1-.077-.134.19.19 0 0 1 .05-.147l1.941-2.1A.185.185 0 0 1 13 8.173a.183.183 0 0 1 .139.095l1.008 1.846a.745.745 0 0 0 .647.386h2.589a.73.73 0 0 0 .536-.232A.751.751 0 0 0 17.362 9Z" fill="#1D2E5B"/></svg><svg fill="none" viewBox="0 0 18 21" id="icon_bus" xmlns="http://www.w3.org/2000/svg"><g clip-path="url(#ba)"><path d="M4.34 13.948a1.3 1.3 0 0 0-.415-.97 1.392 1.392 0 0 0-1.004-.4c-.392 0-.726.133-1.003.4a1.3 1.3 0 0 0-.416.97c0 .38.138.702.416.97.277.268.611.402 1.003.402.392 0 .726-.134 1.004-.402.277-.268.415-.59.415-.97Zm11.356 0a1.3 1.3 0 0 0-.416-.97 1.392 1.392 0 0 0-1.004-.4c-.392 0-.726.133-1.003.4a1.3 1.3 0 0 0-.416.97c0 .38.138.702.416.97.277.268.611.402 1.003.402.392 0 .726-.134 1.004-.402a1.3 1.3 0 0 0 .416-.97Zm-.51-4.242-.799-4.115a.695.695 0 0 0-.25-.401.698.698 0 0 0-.449-.156H3.508c-.17 0-.319.052-.448.156a.695.695 0 0 0-.25.401l-.798 4.115a.661.661 0 0 0 .155.568c.14.164.322.246.543.246h11.777a.682.682 0 0 0 .543-.246.661.661 0 0 0 .155-.568Zm-2.507-6.558a.488.488 0 0 0-.155-.364.523.523 0 0 0-.377-.15H5.05a.523.523 0 0 0-.377.15.488.488 0 0 0-.155.364.523.523 0 0 0 .532.514h7.097c.148 0 .274-.05.377-.15a.488.488 0 0 0 .155-.364Zm4.436 7.768v6.461h-1.42v1.372a1.3 1.3 0 0 1-.415.97 1.392 1.392 0 0 1-1.004.4c-.392 0-.726-.133-1.003-.4a1.299 1.299 0 0 1-.416-.97v-1.372H4.34v1.372c0 .378-.138.701-.415.97a1.392 1.392 0 0 1-1.004.4c-.392 0-.726-.133-1.003-.4a1.299 1.299 0 0 1-.416-.97v-1.372H.082v-6.46c0-.8.093-1.597.278-2.39l1.142-4.864c.066-.557.427-1.047 1.08-1.468.655-.422 1.505-.74 2.551-.954C6.18 1.027 7.334.92 8.6.92c1.264 0 2.419.107 3.465.321 1.046.215 1.896.532 2.55.954.655.421 1.015.91 1.082 1.468l1.164 4.864c.17.729.255 1.525.255 2.39Z" fill="#1D2E5B"/></g><defs><clipPath id="ba"><path fill="#fff" transform="translate(.08 .92)" d="M0 0h17.04v19.2H0z"/></clipPath></defs></svg><svg fill="none" viewBox="0 0 11 21" id="icon_facebook" xmlns="http://www.w3.org/2000/svg"><path d="M7.488 20.77H2.129V11.25H0V6.544h2.066c-.157-2.132.236-3.69 1.195-4.752A4.882 4.882 0 0 1 4.896.686 5.15 5.15 0 0 1 6.867.294h3.756v4.538H7.669a4.554 4.554 0 0 0-.197 1.712h3.143v4.707H7.472l.016 9.519Zm-4.172-1.107h2.97v-9.518h3.143V7.673H6.286v-.56c0-1.477 0-2.797.785-3.292l.15-.096h2.208V1.401h-2.53a3.876 3.876 0 0 0-1.497.28c-.472.19-.897.472-1.246.827-.785.907-1.107 2.427-.864 4.53l.079.613H1.179v2.494h2.137v9.518Z" fill="#192144"/></svg><svg fill="none" viewBox="0 0 18 18" id="icon_instagram" xmlns="http://www.w3.org/2000/svg"><g clip-path="url(#da)" fill="#192144"><path d="M12.96 2.033a3.274 3.274 0 0 1 2.289.936c.607.597.95 1.407.951 2.252v7.791a3.169 3.169 0 0 1-.951 2.252 3.275 3.275 0 0 1-2.289.936H5.04a3.274 3.274 0 0 1-2.284-.938 3.169 3.169 0 0 1-.949-2.25V5.221a3.169 3.169 0 0 1 .949-2.25 3.274 3.274 0 0 1 2.284-.938h7.92Zm0-1.062H5.04a4.356 4.356 0 0 0-3.055 1.244A4.215 4.215 0 0 0 .72 5.221v7.791c0 1.127.455 2.208 1.265 3.005a4.356 4.356 0 0 0 3.055 1.245h7.92a4.357 4.357 0 0 0 3.055-1.245 4.216 4.216 0 0 0 1.265-3.005V5.221a4.216 4.216 0 0 0-1.265-3.006A4.356 4.356 0 0 0 12.96.971Z"/><path d="M9.007 5.985c.63 0 1.248.184 1.772.529a3.15 3.15 0 0 1 1.175 1.408 3.09 3.09 0 0 1 .181 1.813 3.122 3.122 0 0 1-.873 1.607 3.206 3.206 0 0 1-1.633.858 3.238 3.238 0 0 1-1.843-.178 3.18 3.18 0 0 1-1.431-1.156 3.102 3.102 0 0 1 .395-3.964 3.187 3.187 0 0 1 1.035-.68 3.228 3.228 0 0 1 1.222-.237Zm0-1.063a4.32 4.32 0 0 0-2.374.705A4.216 4.216 0 0 0 5.057 7.51a4.137 4.137 0 0 0-.246 2.428 4.18 4.18 0 0 0 1.167 2.152 4.292 4.292 0 0 0 2.186 1.152c.829.162 1.687.08 2.468-.238a4.256 4.256 0 0 0 1.917-1.547 4.153 4.153 0 0 0-.525-5.304c-.396-.39-.866-.7-1.384-.91a4.323 4.323 0 0 0-1.633-.32ZM13.428 5.73a.957.957 0 0 0 .965-.948.957.957 0 0 0-.965-.95.957.957 0 0 0-.965.95c0 .524.432.949.965.949Z"/></g><defs><clipPath id="da"><path fill="#fff" transform="translate(0 .262)" d="M0 0h18v17.708H0z"/></clipPath></defs></svg><svg fill="none" viewBox="0 0 21 21" id="icon_location" xmlns="http://www.w3.org/2000/svg"><path d="M10.5 0a7.876 7.876 0 0 0-7.875 7.875c0 5.058 3.803 7.27 4.644 8.279C9.29 18.577 9.403 21 10.5 21s1.211-2.423 3.23-4.846c.841-1.01 4.645-3.22 4.645-8.279A7.876 7.876 0 0 0 10.5 0Zm0 13.125a5.25 5.25 0 1 1 0-10.5 5.25 5.25 0 0 1 0 10.5Zm0-7.875a2.626 2.626 0 0 0 0 5.25 2.626 2.626 0 0 0 0-5.25Z" fill="#FFD74B"/><circle cx="10.5" cy="7.875" fill="#161C35" r=".875"/></svg><svg fill="none" viewBox="0 0 24 25" id="icon_mail" xmlns="http://www.w3.org/2000/svg"><path fill-rule="evenodd" clip-rule="evenodd" d="M19.14 16.466 14.808 12.5l4.33-3.966-.59-.631-6.299 5.769-6.299-5.77-.59.632L9.69 12.5l-4.33 3.966.59.631 4.38-4.011 1.919 1.758 1.92-1.758 4.379 4.011.59-.63ZM4.575 6.25c-.81 0-1.465.699-1.465 1.558v9.384c0 .86.65 1.558 1.465 1.558h15.348c.809 0 1.465-.699 1.465-1.558V7.808c0-.86-.65-1.558-1.465-1.558H4.576Z" fill="#FFD74B"/></svg><svg fill="none" viewBox="0 0 21 23" id="icon_plane" xmlns="http://www.w3.org/2000/svg"><g clip-path="url(#ga)"><path d="M16.783 2.093c-.728.173-1.46.347-1.733.824l-2.107 4.199L1.63 9.806l-.458 1.341 8.658.82-1.47 3.634-3.283.78-.824 1.43 2.369.256.27 1.169c.12.414.545.69.908.604l1.095-.26 1.268 2.163.825-1.428-.81-3.505 2.377-3.03 4.536 7.961.914-1.038L15.213 8.63l2.563-3.895c.276-.477.096-1.255-.085-2.036-.09-.387-.545-.691-.908-.605Z" fill="#101D41"/></g><defs><clipPath id="ga"><path fill="#fff" transform="translate(0 .96)" d="M0 0h20.826v21.12H0z"/></clipPath></defs></svg><svg fill="none" viewBox="0 0 21 24" id="icon_run" xmlns="http://www.w3.org/2000/svg"><path d="M14.976 5.76c.95 0 1.721-.86 1.721-1.92s-.77-1.92-1.721-1.92c-.95 0-1.721.86-1.721 1.92s.77 1.92 1.72 1.92ZM13.923 10.53c.198.329.481.581.812.724.33.142.693.168 1.037.073l2.854-.796-.416-1.862-2.854.796L14.17 7.48a1.735 1.735 0 0 0-1.094-.82l-3.31-.739a1.56 1.56 0 0 0-1.094.158c-.34.185-.614.49-.783.867l-1.427 3.183 1.54.86 1.427-3.185 1.692.378-4.377 8.138H2.927v1.92h3.816c.601 0 1.166-.357 1.476-.932l1.65-3.068 4.45.992 1.562 5.231 1.632-.607-1.562-5.23a1.955 1.955 0 0 0-.495-.833 1.665 1.665 0 0 0-.801-.444l-2.615-.583 1.525-2.836.358.6Z" fill="#1D2E5B"/></svg><svg fill="none" viewBox="0 0 19 17" id="icon_telephone" xmlns="http://www.w3.org/2000/svg"><path fill-rule="evenodd" clip-rule="evenodd" d="M9.5 1.086c-2.796 0-5.6.473-6.617 1.415-.844.781-1.125 2.162-1.22 3.036 0 0-.013.087-.013.124 0 .343.294.618.654.618.043 0 1.616-.12 2.565-.195.022-.003.045-.006.068-.012.353-.01.638-.281.638-.618l.003-1.217c0-.377.324-.68.723-.68H12.7c.399 0 .723.303.723.68l.003 1.217c0 .337.284.608.638.618.022.006.045.009.069.012.948.074 2.521.195 2.564.195.36 0 .654-.275.654-.618 0-.037-.013-.124-.013-.124-.095-.874-.376-2.255-1.22-3.036-1.017-.942-3.82-1.415-6.617-1.415Zm0 8.032c-.723 0-1.308.552-1.308 1.235S8.777 11.59 9.5 11.59c.723 0 1.308-.553 1.308-1.236 0-.683-.585-1.235-1.308-1.235Zm-.981-2.78v-.773c0-.426-.367-.772-.818-.772-.451 0-.818.346-.818.772v.772L2.471 10.79a1.504 1.504 0 0 0-.494 1.106v1.238c0 .683.586 1.236 1.308 1.236h.328v.772c0 .427.366.772.817.772.452 0 .818-.345.818-.772v-.772h8.504v.772c0 .427.366.772.818.772.451 0 .817-.345.817-.772v-.772h.327c.723 0 1.309-.553 1.309-1.236v-1.238c0-.433-.19-.825-.494-1.106l-4.412-4.452v-.772c0-.426-.367-.772-.818-.772-.451 0-.818.346-.818.772v.772H8.52ZM9.5 7.881c1.446 0 2.617 1.106 2.617 2.471 0 1.366-1.171 2.471-2.617 2.471s-2.617-1.105-2.617-2.47c0-1.366 1.171-2.472 2.617-2.472Z" fill="#FFD74B"/></svg><svg fill="none" viewBox="0 0 23 13" id="icon_vkontakte" xmlns="http://www.w3.org/2000/svg"><path d="M17.766 11.854a3.017 3.017 0 0 1-1.543-.465 7.53 7.53 0 0 1-1.32-1.129c-.327-.324-.869-.87-1.076-.87-.208 0-.356.679-.349 1.158.003.331-.122.65-.349.893-.258.21-.573.338-.905.369H10.8a8.424 8.424 0 0 1-5.513-2.214C2.557 7.11.212 2.358.116 2.152A.984.984 0 0 1 .227 1.06C.51.825.868.7 1.237.705H4.352c.25.037.49.125.704.259.202.134.363.32.467.538.32.681.687 1.34 1.099 1.97.971 1.476 1.402 1.815 1.558 1.89a5.96 5.96 0 0 0 .14-2.118 1.982 1.982 0 0 0-.155-.945.99.99 0 0 0-.572-.214l-.541-.509c-.104-.487.438-.907.816-1.07a6.481 6.481 0 0 1 2.337-.28h.527a6.795 6.795 0 0 1 1.595.147c1.261.266 1.217 1.277 1.165 2.443 0 .34-.037.737-.037 1.195v.354c-.03.321-.007.645.067.96a6.718 6.718 0 0 0 1.535-1.83c.43-.659.807-1.35 1.128-2.067a1.168 1.168 0 0 1 1.187-.7h3.176c.093-.01.188-.01.282 0 .742 0 1.18.214 1.357.627.178.413.127 1.225-1.75 3.401l-.742.834c-.36.347-.67.742-.92 1.173.28.318.6.6.95.841A10.542 10.542 0 0 1 21.95 9.87a1.177 1.177 0 0 1 .193 1.24 1.705 1.705 0 0 1-1.395.738l-2.812.037-.17-.03Zm-3.94-3.571c.668 0 1.247.583 1.863 1.195.333.362.706.683 1.113.96.308.203.67.31 1.039.31h.074l2.82-.037c.138-.008.274-.043.4-.104l-.074-.118a9.778 9.778 0 0 0-1.989-2.007c-.883-.738-1.335-1.084-1.387-1.653-.052-.568.363-1.062 1.194-2l.742-.818a7.916 7.916 0 0 0 1.521-2.177 4.22 4.22 0 0 0-.497 0h-3.242a.41.41 0 0 0-.178 0A15.093 15.093 0 0 1 16 4.084c-1.403 2.081-2.063 2.362-2.53 2.362a.887.887 0 0 1-.416-.103c-.742-.421-.742-1.358-.697-2.037V3.99c0-.48 0-.893.037-1.247.06-1.24 0-1.247-.282-1.313a6.386 6.386 0 0 0-1.38-.119h-.512a9.699 9.699 0 0 0-1.41.074c.071.052.134.114.186.185a2.8 2.8 0 0 1 .438 1.608c.096 1.218.044 2.804-.742 3.188-.14.064-.292.097-.446.096-.69 0-1.372-.65-2.537-2.406a17.253 17.253 0 0 1-1.195-2.103l-.059-.073a.901.901 0 0 0-.237-.082h-3.02c.438.9 2.515 4.885 4.837 6.973a7.44 7.44 0 0 0 4.764 1.94h1.372a.743.743 0 0 0 .2-.073v-.067c0-.199 0-1.918 1.173-2.213.09-.036.185-.06.282-.074Z" fill="#192144"/></svg></svg>